<svg xmlns="http://www.w3.org/2000/svg" viewBox="0 0 48 48" width="48" height="48">
  <rect width="48" height="48" rx="11" fill="#062a25"/>
  <defs>
    <linearGradient id="ring" x1="6" y1="6" x2="42" y2="42" gradientUnits="userSpaceOnUse"><stop stop-color="#ffd571"/><stop offset="1" stop-color="#bd7d10"/></linearGradient>
    <linearGradient id="gold" x1="20" y1="20" x2="30" y2="40" gradientUnits="userSpaceOnUse"><stop stop-color="#ffd571"/><stop offset="1" stop-color="#d68a12"/></linearGradient>
    <linearGradient id="palm" x1="6" y1="8" x2="44" y2="22" gradientUnits="userSpaceOnUse"><stop stop-color="#25d3c0"/><stop offset="1" stop-color="#0d8a66"/></linearGradient>
  </defs>
  <g fill="none">
    <path d="M14 38 Q 24 41 34 38" stroke="url(#palm)" stroke-width="2.2" stroke-linecap="round"/>
    <path d="M25 38 C 23 31 23 26 26 21" stroke="url(#gold)" stroke-width="2.8" stroke-linecap="round"/>
    <g stroke="url(#palm)" stroke-width="2.6" stroke-linecap="round">
      <path d="M26 20 C 19 15 12 15 8 18"/><path d="M26 20 C 21 12 15 9 9 10"/>
      <path d="M26 20 C 26 11 30 7 37 8"/><path d="M26 20 C 32 13 39 13 43 17"/>
    </g>
  </g>
  <circle cx="24.5" cy="22.5" r="1.9" fill="url(#gold)"/><circle cx="28" cy="23.5" r="1.7" fill="url(#gold)"/>
</svg>
